<svg xmlns="http://www.w3.org/2000/svg" xmlns:xlink="http://www.w3.org/1999/xlink" width="175.716" height="15.847" viewBox="0 0 175.716 15.847">
  <defs>
    <clipPath id="clip-path">
      <rect id="Rectangle_7" data-name="Rectangle 7" width="175.52" height="12.786" transform="translate(-0.456)" fill="#0b4757"/>
    </clipPath>
  </defs>
  <g id="Element_05" data-name="Element 05" transform="matrix(1, -0.017, 0.017, 1, 0.456, 3.055)" clip-path="url(#clip-path)">
    <path id="Path_4" data-name="Path 4" d="M3.812,4.966c1.376,0,2.817-.052,4.193-.1.59,0,1.114-.052,1.7-.052l7.468-.31c3.013-.1,5.961-.259,8.975-.362,4.258-.207,8.516-.362,12.774-.569.983-.052,1.965-.052,2.948-.1,2.489-.1,4.979-.207,7.468-.259,2.489-.1,4.979-.207,7.468-.259.983-.052,1.965-.1,2.948-.1l11.857-.31c2.424-.052,4.847-.1,7.337-.207.983,0,1.9-.052,2.883-.052L93.3,2.121l11.333-.155h10.416c3.865,0,7.665,0,11.53-.052h12.25c-5.9.052-11.857.1-17.753.207-2.489.052-4.913.052-7.4.1-1.048,0-2.162,0-3.21.052-3.6.052-7.14.155-10.743.207-4.127.1-8.254.155-12.381.259-.72,0-1.376.052-2.1.052-2.227.1-4.389.155-6.616.259l-13.364.466c-.655,0-1.31.052-1.965.1-2.162.1-4.389.259-6.551.362-3.93.207-7.8.414-11.726.621-1.048.052-2.162.155-3.21.207-2.489.155-4.979.31-7.468.517-3.144.207-6.354.414-9.5.621-4.389.31-8.844.621-13.233.931-1.048.052-2.1.155-3.21.207l-5.7.466c-.2,0-.393.1-.393.31,0,.155.2.31.393.31.721,0,1.376.052,2.1.052a1.318,1.318,0,0,0-.2.569A1.262,1.262,0,0,0,5.974,9.88c5.437-.259,10.809-.569,16.246-.776,4.717-.155,9.433-.362,14.15-.517,5.175-.207,10.416-.414,15.591-.569,1.638-.052,3.275-.1,4.913-.207.459,0,.917-.052,1.441-.052C66.7,7.6,75.086,7.4,83.471,7.242c4.454-.1,8.975-.207,13.429-.259,1.638-.052,3.21-.052,4.848-.1l25.745-.31L138.5,6.414c3.144-.052,6.289-.052,9.433-.155,2.62-.052,5.175-.155,7.8-.207,1.31-.052,2.62-.052,3.865-.1l8.844-.466a.748.748,0,0,0-.131.724.814.814,0,0,0,.59.569,1.418,1.418,0,0,0,.917.1c.655-.207,1.31-.414,1.9-.621h-.066c.066,0,.066-.052.131-.052a.252.252,0,0,0,.131-.052h-.066c.328-.1.655-.207,1.048-.362.328-.1.721-.259,1.048-.362.393-.155.721-.31,1.114-.466a1.062,1.062,0,0,0,.655-.931,1,1,0,0,0-.2-.569,1.282,1.282,0,0,0-.786-.517,6.339,6.339,0,0,0-.983-.1h-.2a2.8,2.8,0,0,0-.655.052,14.736,14.736,0,0,1-1.506.1c-.393,0-.786.052-1.245.052-1.114.052-2.162.1-3.276.207-.262,0-.59.052-.852.052a.419.419,0,0,0,.2-.31.534.534,0,0,0,.066-.31.262.262,0,0,1,.066-.207c0-.1,0-.207-.066-.259,0,0,.066,0,.066-.052a1.242,1.242,0,0,0,.524-.414.883.883,0,0,0,.2-.569.994.994,0,0,0-.2-.569c-.065-.052-.131-.155-.2-.207a1.473,1.473,0,0,0-.59-.259A5.269,5.269,0,0,0,164.767,0H143.345c-6.747,0-13.429.052-20.177.1-5.044.052-10.088.1-15.133.1-2.227,0-4.52.052-6.747.1C96.245.414,91.2.466,86.157.569c-1.441,0-2.882.052-4.323.052-.852,0-1.638.052-2.49.052l-14.936.466c-1.507.052-3.014.1-4.586.155-.852,0-1.7.052-2.555.1L42.4,2.017c-2.555.1-5.109.207-7.664.362-4.389.207-8.778.414-13.1.672-3.8.207-7.6.362-11.4.517-.59.052-1.179.052-1.834.1-.983.052-1.965.052-2.948.1a11.2,11.2,0,0,1-2.62.207.482.482,0,0,0-.524-.31c-.59,0-1.114.052-1.7.1-.262.052-.524.155-.59.362a.484.484,0,0,0,.393.569l.786.155a3.382,3.382,0,0,0,.721.052C2.568,4.966,3.157,4.966,3.812,4.966ZM157.1,3.311h2.424a.972.972,0,0,0,.328.362c-.328,0-.655.052-.917.052-.59,0-1.179.052-1.769.052-2.621.052-5.175.155-7.8.207-1.179.052-2.358.1-3.537.1-1.834,0-3.734.052-5.568.052l-12.709.155-24.7.31c-5.9.052-11.792.207-17.687.362-8.844.207-17.753.362-26.6.569-1.769.052-3.537.1-5.306.207-5.044.207-10.088.362-15.132.569-4.913.207-9.892.362-14.805.569-.459,0-.917.052-1.376.052,1.31-.1,2.686-.155,4-.259,4.651-.259,9.3-.569,13.953-.828,1.638-.1,3.276-.207,4.848-.31.852-.052,1.7-.1,2.489-.1,4.913-.207,9.761-.466,14.608-.672.917-.052,1.9-.1,2.817-.155,1.376-.052,2.751-.1,4.061-.1l14.936-.466c1.113-.052,2.227-.052,3.275-.1h.852c.786,0,1.572,0,2.293-.052,4.979-.1,10.023-.155,15-.259,2.293-.052,4.586-.1,6.878-.1l22.273-.155C141.97,3.362,149.569,3.311,157.1,3.311Z" transform="translate(0.074 0)" fill="#0b4757"/>
    <path id="Path_5" data-name="Path 5" d="M37.359,40.581A.3.3,0,1,0,37,40.291.33.33,0,0,0,37.359,40.581Z" transform="translate(-23.658 -28.376)" fill="#0b4757"/>
  </g>
</svg>
